<mxfile host="Electron" modified="2023-11-18T11:58:55.484Z" agent="Mozilla/5.0 (X11; Linux x86_64) AppleWebKit/537.36 (KHTML, like Gecko) draw.io/22.1.2 Chrome/114.0.5735.289 Electron/25.9.4 Safari/537.36" etag="lFcNuNQALwUVs-hdAeVY" version="22.1.2" type="device">
  <diagram id="G4t1x3i_cumIOjZ8GDXV" name="Page-1">
    <mxGraphModel dx="2020" dy="1203" grid="1" gridSize="10" guides="1" tooltips="1" connect="1" arrows="1" fold="1" page="1" pageScale="1" pageWidth="850" pageHeight="1100" math="0" shadow="0">
      <root>
        <mxCell id="0" />
        <mxCell id="1" parent="0" />
        <mxCell id="zEOiwxzGmeE4_qA-A_0B-1" value="Messages for user ID&lt;br&gt;go into a dedicated partition" style="shape=note;whiteSpace=wrap;html=1;backgroundOutline=1;darkOpacity=0.05;align=left;gradientColor=#b3b3b3;fillColor=#f5f5f5;strokeColor=#666666;" parent="1" vertex="1">
          <mxGeometry x="570" y="320" width="190" height="30" as="geometry" />
        </mxCell>
        <mxCell id="zEOiwxzGmeE4_qA-A_0B-2" value="Dynamic configuration contains:&lt;br&gt;- PUB/SUB backplane partition count&lt;br&gt;- key-value pairs&amp;nbsp;(messaging server ID -&amp;gt; partitions)&lt;br&gt;- key-value pairs&amp;nbsp;(messaging&amp;nbsp;server ID -&amp;gt; address)&lt;br&gt;- history settings" style="shape=note;whiteSpace=wrap;html=1;backgroundOutline=1;darkOpacity=0.05;align=left;gradientColor=#b3b3b3;fillColor=#f5f5f5;strokeColor=#666666;" parent="1" vertex="1">
          <mxGeometry x="450" y="540" width="310" height="70" as="geometry" />
        </mxCell>
        <mxCell id="zEOiwxzGmeE4_qA-A_0B-3" value="Client is assigned to a Messaging server which is subscribed to partitions only for messages for the client user" style="shape=note;whiteSpace=wrap;html=1;backgroundOutline=1;darkOpacity=0.05;align=left;gradientColor=#b3b3b3;fillColor=#f5f5f5;strokeColor=#666666;" parent="1" vertex="1">
          <mxGeometry x="160" y="40" width="370" height="30" as="geometry" />
        </mxCell>
        <mxCell id="WAReTh2NtruZ-ETWnuQE-5" value="" style="edgeStyle=orthogonalEdgeStyle;rounded=0;orthogonalLoop=1;jettySize=auto;html=1;entryX=0;entryY=0.5;entryDx=0;entryDy=0;startArrow=classic;startFill=1;" parent="1" source="WAReTh2NtruZ-ETWnuQE-7" target="WAReTh2NtruZ-ETWnuQE-11" edge="1">
          <mxGeometry relative="1" as="geometry" />
        </mxCell>
        <mxCell id="WAReTh2NtruZ-ETWnuQE-6" value="Register&lt;br style=&quot;border-color: var(--border-color);&quot;&gt;Create session&lt;br style=&quot;border-color: var(--border-color);&quot;&gt;Manage own&amp;nbsp;profile&lt;br style=&quot;border-color: var(--border-color);&quot;&gt;Manage connections&lt;br style=&quot;border-color: var(--border-color);&quot;&gt;Get public profiles&lt;br style=&quot;border-color: var(--border-color);&quot;&gt;Get user chats&lt;br style=&quot;border-color: var(--border-color);&quot;&gt;Get chat history" style="edgeStyle=orthogonalEdgeStyle;rounded=0;orthogonalLoop=1;jettySize=auto;html=1;entryX=0;entryY=0.5;entryDx=0;entryDy=0;" parent="1" source="WAReTh2NtruZ-ETWnuQE-7" target="WAReTh2NtruZ-ETWnuQE-24" edge="1">
          <mxGeometry x="0.0877" relative="1" as="geometry">
            <Array as="points">
              <mxPoint x="115" y="210" />
              <mxPoint x="115" y="130" />
            </Array>
            <mxPoint as="offset" />
          </mxGeometry>
        </mxCell>
        <mxCell id="WAReTh2NtruZ-ETWnuQE-7" value="Client" style="shape=umlActor;verticalLabelPosition=bottom;verticalAlign=top;html=1;outlineConnect=0;" parent="1" vertex="1">
          <mxGeometry x="40" y="310" width="30" height="60" as="geometry" />
        </mxCell>
        <mxCell id="WAReTh2NtruZ-ETWnuQE-8" value="Send message&lt;br&gt;React to message&lt;br&gt;Receive notifications" style="edgeStyle=orthogonalEdgeStyle;rounded=0;orthogonalLoop=1;jettySize=auto;html=1;entryX=0;entryY=0.75;entryDx=0;entryDy=0;startArrow=classic;startFill=1;" parent="1" source="WAReTh2NtruZ-ETWnuQE-9" target="WAReTh2NtruZ-ETWnuQE-11" edge="1">
          <mxGeometry x="0.0303" relative="1" as="geometry">
            <mxPoint as="offset" />
          </mxGeometry>
        </mxCell>
        <mxCell id="WAReTh2NtruZ-ETWnuQE-9" value="Client" style="shape=umlActor;verticalLabelPosition=bottom;verticalAlign=top;html=1;outlineConnect=0;" parent="1" vertex="1">
          <mxGeometry x="40" y="450" width="30" height="60" as="geometry" />
        </mxCell>
        <mxCell id="WAReTh2NtruZ-ETWnuQE-10" value="PUB messages and reactions&lt;br&gt;&lt;div&gt;SUB to assigned partitions&lt;/div&gt;" style="rounded=0;orthogonalLoop=1;jettySize=auto;html=1;entryX=0.008;entryY=0.35;entryDx=0;entryDy=0;entryPerimeter=0;startArrow=classic;startFill=1;exitX=1;exitY=0.5;exitDx=0;exitDy=0;" parent="1" source="WAReTh2NtruZ-ETWnuQE-11" target="WAReTh2NtruZ-ETWnuQE-13" edge="1">
          <mxGeometry x="0.0528" y="1" relative="1" as="geometry">
            <mxPoint as="offset" />
          </mxGeometry>
        </mxCell>
        <mxCell id="WAReTh2NtruZ-ETWnuQE-11" value="&lt;font style=&quot;font-size: 12px&quot;&gt;Messaging&lt;/font&gt;" style="rounded=1;whiteSpace=wrap;html=1;gradientColor=#ffa500;fillColor=#ffcd28;strokeColor=#d79b00;" parent="1" vertex="1">
          <mxGeometry x="160" y="360" width="120" height="60" as="geometry" />
        </mxCell>
        <mxCell id="WAReTh2NtruZ-ETWnuQE-13" value="PUB/SUB&lt;br&gt;backplane" style="strokeWidth=2;html=1;shape=mxgraph.flowchart.direct_data;whiteSpace=wrap;gradientColor=#97d077;fillColor=#d5e8d4;strokeColor=#82b366;" parent="1" vertex="1">
          <mxGeometry x="640" y="360" width="120" height="80" as="geometry" />
        </mxCell>
        <mxCell id="WAReTh2NtruZ-ETWnuQE-16" value="Update" style="edgeStyle=orthogonalEdgeStyle;rounded=0;orthogonalLoop=1;jettySize=auto;html=1;entryX=0;entryY=0.5;entryDx=0;entryDy=0;entryPerimeter=0;exitX=1;exitY=0.5;exitDx=0;exitDy=0;" parent="1" source="WAReTh2NtruZ-ETWnuQE-17" target="WAReTh2NtruZ-ETWnuQE-18" edge="1">
          <mxGeometry relative="1" as="geometry" />
        </mxCell>
        <mxCell id="WAReTh2NtruZ-ETWnuQE-17" value="Configurator" style="rounded=1;whiteSpace=wrap;html=1;gradientColor=#ffa500;fillColor=#ffcd28;strokeColor=#d79b00;" parent="1" vertex="1">
          <mxGeometry x="380" y="460" width="120" height="60" as="geometry" />
        </mxCell>
        <mxCell id="WAReTh2NtruZ-ETWnuQE-18" value="Config DB" style="shape=cylinder3;whiteSpace=wrap;html=1;boundedLbl=1;backgroundOutline=1;size=15;gradientColor=#7ea6e0;fillColor=#dae8fc;strokeColor=#6c8ebf;" parent="1" vertex="1">
          <mxGeometry x="640" y="450" width="120" height="80" as="geometry" />
        </mxCell>
        <mxCell id="WAReTh2NtruZ-ETWnuQE-19" value="&lt;font style=&quot;font-size: 12px&quot;&gt;State&lt;/font&gt;" style="rounded=1;whiteSpace=wrap;html=1;gradientColor=#ffa500;fillColor=#ffcd28;strokeColor=#d79b00;" parent="1" vertex="1">
          <mxGeometry x="380" y="100" width="120" height="60" as="geometry" />
        </mxCell>
        <mxCell id="WAReTh2NtruZ-ETWnuQE-22" value="&lt;font style=&quot;font-size: 10px&quot;&gt;PUB config&lt;br&gt;changes&lt;/font&gt;" style="rounded=1;whiteSpace=wrap;html=1;gradientColor=#97d077;fillColor=#d5e8d4;strokeColor=#82b366;" parent="1" vertex="1">
          <mxGeometry x="410" y="440" width="60" height="30" as="geometry" />
        </mxCell>
        <mxCell id="WAReTh2NtruZ-ETWnuQE-23" value="&lt;font style=&quot;font-size: 10px&quot;&gt;SUB config&lt;br&gt;changes&lt;/font&gt;" style="rounded=1;whiteSpace=wrap;html=1;gradientColor=#97d077;fillColor=#d5e8d4;strokeColor=#82b366;" parent="1" vertex="1">
          <mxGeometry x="190" y="340" width="60" height="30" as="geometry" />
        </mxCell>
        <mxCell id="vOK45yCCNcbg0Topnff8-5" value="Get chat&lt;br style=&quot;border-color: var(--border-color);&quot;&gt;history" style="edgeStyle=orthogonalEdgeStyle;rounded=0;orthogonalLoop=1;jettySize=auto;html=1;entryX=0;entryY=0.5;entryDx=0;entryDy=0;" edge="1" parent="1" source="WAReTh2NtruZ-ETWnuQE-24" target="vOK45yCCNcbg0Topnff8-1">
          <mxGeometry x="0.0526" y="20" relative="1" as="geometry">
            <Array as="points">
              <mxPoint x="330" y="130" />
              <mxPoint x="330" y="220" />
            </Array>
            <mxPoint as="offset" />
          </mxGeometry>
        </mxCell>
        <mxCell id="vOK45yCCNcbg0Topnff8-6" value="Create own profile&lt;br style=&quot;border-color: var(--border-color);&quot;&gt;Authenticate&lt;br style=&quot;border-color: var(--border-color);&quot;&gt;Manage own profile&lt;br style=&quot;border-color: var(--border-color);&quot;&gt;Manage connections&lt;br style=&quot;border-color: var(--border-color);&quot;&gt;Get public profiles" style="edgeStyle=orthogonalEdgeStyle;rounded=0;orthogonalLoop=1;jettySize=auto;html=1;entryX=0;entryY=0.5;entryDx=0;entryDy=0;exitX=1;exitY=0.75;exitDx=0;exitDy=0;" edge="1" parent="1" source="WAReTh2NtruZ-ETWnuQE-24" target="vOK45yCCNcbg0Topnff8-3">
          <mxGeometry x="0.1698" y="-30" relative="1" as="geometry">
            <Array as="points">
              <mxPoint x="320" y="145" />
              <mxPoint x="320" y="310" />
            </Array>
            <mxPoint as="offset" />
          </mxGeometry>
        </mxCell>
        <mxCell id="WAReTh2NtruZ-ETWnuQE-24" value="&lt;font style=&quot;font-size: 12px&quot;&gt;Backend&amp;nbsp; &amp;nbsp; &amp;nbsp; &amp;nbsp;&lt;br&gt;For Frontend&lt;/font&gt;" style="rounded=1;whiteSpace=wrap;html=1;gradientColor=#ffa500;fillColor=#ffcd28;strokeColor=#d79b00;" parent="1" vertex="1">
          <mxGeometry x="160" y="100" width="120" height="60" as="geometry" />
        </mxCell>
        <mxCell id="WAReTh2NtruZ-ETWnuQE-25" value="&lt;font style=&quot;font-size: 10px&quot;&gt;SUB config&lt;br&gt;changes&lt;/font&gt;" style="rounded=1;whiteSpace=wrap;html=1;gradientColor=#97d077;fillColor=#d5e8d4;strokeColor=#82b366;" parent="1" vertex="1">
          <mxGeometry x="190" y="80" width="60" height="30" as="geometry" />
        </mxCell>
        <mxCell id="WAReTh2NtruZ-ETWnuQE-30" value="Get user&lt;br style=&quot;border-color: var(--border-color);&quot;&gt;chats" style="endArrow=classic;html=1;exitX=1;exitY=0.25;exitDx=0;exitDy=0;entryX=0;entryY=0.5;entryDx=0;entryDy=0;edgeStyle=orthogonalEdgeStyle;rounded=0;" parent="1" source="WAReTh2NtruZ-ETWnuQE-24" target="WAReTh2NtruZ-ETWnuQE-19" edge="1">
          <mxGeometry x="-0.1304" y="-5" width="50" height="50" relative="1" as="geometry">
            <mxPoint x="290" y="415" as="sourcePoint" />
            <mxPoint x="370" y="480" as="targetPoint" />
            <mxPoint x="5" y="-5" as="offset" />
            <Array as="points">
              <mxPoint x="360" y="115" />
              <mxPoint x="360" y="130" />
            </Array>
          </mxGeometry>
        </mxCell>
        <mxCell id="WAReTh2NtruZ-ETWnuQE-32" value="&lt;font style=&quot;font-size: 10px&quot;&gt;SUB config&lt;br&gt;changes&lt;/font&gt;" style="rounded=1;whiteSpace=wrap;html=1;gradientColor=#97d077;fillColor=#d5e8d4;strokeColor=#82b366;" parent="1" vertex="1">
          <mxGeometry x="410" y="80" width="60" height="30" as="geometry" />
        </mxCell>
        <mxCell id="vOK45yCCNcbg0Topnff8-1" value="&lt;font style=&quot;font-size: 12px&quot;&gt;History&lt;/font&gt;" style="rounded=1;whiteSpace=wrap;html=1;gradientColor=#ffa500;fillColor=#ffcd28;strokeColor=#d79b00;" vertex="1" parent="1">
          <mxGeometry x="380" y="190" width="120" height="60" as="geometry" />
        </mxCell>
        <mxCell id="vOK45yCCNcbg0Topnff8-2" value="&lt;font style=&quot;font-size: 10px&quot;&gt;SUB config&lt;br&gt;changes&lt;/font&gt;" style="rounded=1;whiteSpace=wrap;html=1;gradientColor=#97d077;fillColor=#d5e8d4;strokeColor=#82b366;" vertex="1" parent="1">
          <mxGeometry x="410" y="170" width="60" height="30" as="geometry" />
        </mxCell>
        <mxCell id="vOK45yCCNcbg0Topnff8-3" value="&lt;font style=&quot;font-size: 12px&quot;&gt;User&lt;/font&gt;" style="rounded=1;whiteSpace=wrap;html=1;gradientColor=#ffa500;fillColor=#ffcd28;strokeColor=#d79b00;" vertex="1" parent="1">
          <mxGeometry x="380" y="280" width="120" height="60" as="geometry" />
        </mxCell>
        <mxCell id="vOK45yCCNcbg0Topnff8-4" value="&lt;font style=&quot;font-size: 10px&quot;&gt;SUB config&lt;br&gt;changes&lt;/font&gt;" style="rounded=1;whiteSpace=wrap;html=1;gradientColor=#97d077;fillColor=#d5e8d4;strokeColor=#82b366;" vertex="1" parent="1">
          <mxGeometry x="410" y="260" width="60" height="30" as="geometry" />
        </mxCell>
      </root>
    </mxGraphModel>
  </diagram>
</mxfile>
